<svg width="126" height="122" viewBox="0 0 126 122" fill="none" xmlns="http://www.w3.org/2000/svg">
<g filter="url(#filter0_f_1001_2)">
<ellipse cx="62.5652" cy="61" rx="37.5652" ry="36" fill="url(#paint0_linear_1001_2)" fill-opacity="0.2"/>
</g>
<path d="M39.445 86.66C35.155 86.66 31.7633 85.3767 29.27 82.81C26.7767 80.2067 25.53 76.6317 25.53 72.085C25.53 67.465 26.3733 63.23 28.06 59.38C29.7833 55.53 32.1667 52.4867 35.21 50.25C38.2533 47.9767 41.7183 46.84 45.605 46.84C49.895 46.84 53.2867 48.1417 55.78 50.745C58.2733 53.3117 59.52 56.8683 59.52 61.415C59.52 66.035 58.6583 70.27 56.935 74.12C55.2483 77.97 52.8833 81.0317 49.84 83.305C46.7967 85.5417 43.3317 86.66 39.445 86.66ZM40.27 79.125C42.3967 79.125 44.23 78.2083 45.77 76.375C47.3467 74.5417 48.5383 72.2683 49.345 69.555C50.1517 66.805 50.555 64.165 50.555 61.635C50.555 59.1783 50.0417 57.3633 49.015 56.19C48.025 54.98 46.6133 54.375 44.78 54.375C42.6533 54.375 40.8017 55.2917 39.225 57.125C37.685 58.9583 36.5117 61.25 35.705 64C34.8983 66.7133 34.495 69.335 34.495 71.865C34.495 74.3217 34.99 76.155 35.98 77.365C37.0067 78.5383 38.4367 79.125 40.27 79.125ZM82.2281 47.5L74.5281 86H65.6181L71.8881 54.65H64.1881L65.6181 47.5H82.2281Z" fill="#008000" fill-opacity="0.2"/>
<defs>
<filter id="filter0_f_1001_2" x="0" y="0" width="125.13" height="122" filterUnits="userSpaceOnUse" color-interpolation-filters="sRGB">
<feFlood flood-opacity="0" result="BackgroundImageFix"/>
<feBlend mode="normal" in="SourceGraphic" in2="BackgroundImageFix" result="shape"/>
<feGaussianBlur stdDeviation="12.5" result="effect1_foregroundBlur_1001_2"/>
</filter>
<linearGradient id="paint0_linear_1001_2" x1="63.532" y1="97" x2="63.532" y2="25" gradientUnits="userSpaceOnUse">
<stop stop-color="#2F5C48"/>
<stop offset="1" stop-color="#69B492" stop-opacity="0.5"/>
</linearGradient>
</defs>
</svg>
