<svg width="122" height="122" viewBox="0 0 122 122" fill="none" xmlns="http://www.w3.org/2000/svg">
<g filter="url(#filter0_f_1001_3)">
<circle cx="61" cy="61" r="36" fill="url(#paint0_linear_1001_3)" fill-opacity="0.2"/>
</g>
<path d="M42.445 81.66C38.155 81.66 34.7633 80.3767 32.27 77.81C29.7767 75.2067 28.53 71.6317 28.53 67.085C28.53 62.465 29.3733 58.23 31.06 54.38C32.7833 50.53 35.1667 47.4867 38.21 45.25C41.2533 42.9767 44.7183 41.84 48.605 41.84C52.895 41.84 56.2867 43.1417 58.78 45.745C61.2733 48.3117 62.52 51.8683 62.52 56.415C62.52 61.035 61.6583 65.27 59.935 69.12C58.2483 72.97 55.8833 76.0317 52.84 78.305C49.7967 80.5417 46.3317 81.66 42.445 81.66ZM43.27 74.125C45.3967 74.125 47.23 73.2083 48.77 71.375C50.3467 69.5417 51.5383 67.2683 52.345 64.555C53.1517 61.805 53.555 59.165 53.555 56.635C53.555 54.1783 53.0417 52.3633 52.015 51.19C51.025 49.98 49.6133 49.375 47.78 49.375C45.6533 49.375 43.8017 50.2917 42.225 52.125C40.685 53.9583 39.5117 56.25 38.705 59C37.8983 61.7133 37.495 64.335 37.495 66.865C37.495 69.3217 37.99 71.155 38.98 72.365C40.0067 73.5383 41.4367 74.125 43.27 74.125ZM76.7581 73.74H92.9281L91.4981 81H62.3481L63.5031 75.225L81.0481 61.475C83.1748 59.7517 84.6415 58.3033 85.4481 57.13C86.2915 55.9567 86.7131 54.7283 86.7131 53.445C86.7131 52.1617 86.2181 51.135 85.2281 50.365C84.2748 49.595 82.8815 49.21 81.0481 49.21C79.5081 49.21 78.0231 49.5583 76.5931 50.255C75.1631 50.9517 73.9165 51.9417 72.8531 53.225L66.8581 48.88C68.4348 46.7167 70.5981 45.0117 73.3481 43.765C76.0981 42.4817 79.1048 41.84 82.3681 41.84C85.0448 41.84 87.3915 42.28 89.4081 43.16C91.4615 44.04 93.0381 45.2683 94.1381 46.845C95.2748 48.4217 95.8431 50.2 95.8431 52.18C95.8431 54.5633 95.1831 56.8 93.8631 58.89C92.5431 60.98 90.2515 63.29 86.9881 65.82L76.7581 73.74Z" fill="#008000" fill-opacity="0.25"/>
<defs>
<filter id="filter0_f_1001_3" x="0" y="0" width="122" height="122" filterUnits="userSpaceOnUse" color-interpolation-filters="sRGB">
<feFlood flood-opacity="0" result="BackgroundImageFix"/>
<feBlend mode="normal" in="SourceGraphic" in2="BackgroundImageFix" result="shape"/>
<feGaussianBlur stdDeviation="12.5" result="effect1_foregroundBlur_1001_3"/>
</filter>
<linearGradient id="paint0_linear_1001_3" x1="61.9265" y1="97" x2="61.9265" y2="25" gradientUnits="userSpaceOnUse">
<stop stop-color="#2F5C48"/>
<stop offset="1" stop-color="#69B492" stop-opacity="0.5"/>
</linearGradient>
</defs>
</svg>
