<svg width="122" height="122" viewBox="0 0 122 122" fill="none" xmlns="http://www.w3.org/2000/svg">
<g filter="url(#filter0_f_1001_4)">
<circle cx="61" cy="61" r="36" fill="url(#paint0_linear_1001_4)" fill-opacity="0.2"/>
</g>
<path d="M38.445 84.66C34.155 84.66 30.7633 83.3767 28.27 80.81C25.7767 78.2067 24.53 74.6317 24.53 70.085C24.53 65.465 25.3733 61.23 27.06 57.38C28.7833 53.53 31.1667 50.4867 34.21 48.25C37.2533 45.9767 40.7183 44.84 44.605 44.84C48.895 44.84 52.2867 46.1417 54.78 48.745C57.2733 51.3117 58.52 54.8683 58.52 59.415C58.52 64.035 57.6583 68.27 55.935 72.12C54.2483 75.97 51.8833 79.0317 48.84 81.305C45.7967 83.5417 42.3317 84.66 38.445 84.66ZM39.27 77.125C41.3967 77.125 43.23 76.2083 44.77 74.375C46.3467 72.5417 47.5383 70.2683 48.345 67.555C49.1517 64.805 49.555 62.165 49.555 59.635C49.555 57.1783 49.0417 55.3633 48.015 54.19C47.025 52.98 45.6133 52.375 43.78 52.375C41.6533 52.375 39.8017 53.2917 38.225 55.125C36.685 56.9583 35.5117 59.25 34.705 62C33.8983 64.7133 33.495 67.335 33.495 69.865C33.495 72.3217 33.99 74.155 34.98 75.365C36.0067 76.5383 37.4367 77.125 39.27 77.125ZM91.7383 51.275L80.9583 61.34C83.6349 61.9633 85.7066 63.1183 87.1733 64.805C88.6399 66.4917 89.3733 68.5817 89.3733 71.075C89.3733 73.6783 88.6033 76.0067 87.0633 78.06C85.5599 80.1133 83.4516 81.7267 80.7383 82.9C78.0249 84.0733 74.9449 84.66 71.4983 84.66C68.6749 84.66 66.0349 84.275 63.5783 83.505C61.1216 82.735 59.0683 81.635 57.4183 80.205L61.7083 73.66C62.9916 74.76 64.5316 75.6217 66.3283 76.245C68.1616 76.8683 70.0866 77.18 72.1033 77.18C74.7433 77.18 76.7783 76.7033 78.2083 75.75C79.6383 74.76 80.3533 73.385 80.3533 71.625C80.3533 70.2317 79.8216 69.205 78.7583 68.545C77.7316 67.8483 76.1549 67.5 74.0283 67.5H69.9583L71.1133 61.615L80.6833 52.65H64.4033L65.8883 45.5H92.8383L91.7383 51.275Z" fill="#008000" fill-opacity="0.25"/>
<defs>
<filter id="filter0_f_1001_4" x="0" y="0" width="122" height="122" filterUnits="userSpaceOnUse" color-interpolation-filters="sRGB">
<feFlood flood-opacity="0" result="BackgroundImageFix"/>
<feBlend mode="normal" in="SourceGraphic" in2="BackgroundImageFix" result="shape"/>
<feGaussianBlur stdDeviation="12.5" result="effect1_foregroundBlur_1001_4"/>
</filter>
<linearGradient id="paint0_linear_1001_4" x1="61.9265" y1="97" x2="61.9265" y2="25" gradientUnits="userSpaceOnUse">
<stop stop-color="#2F5C48"/>
<stop offset="1" stop-color="#69B492" stop-opacity="0.5"/>
</linearGradient>
</defs>
</svg>
