<svg width="126" height="122" viewBox="0 0 126 122" fill="none" xmlns="http://www.w3.org/2000/svg">
<g filter="url(#filter0_f_1001_5)">
<ellipse cx="62.5652" cy="61" rx="37.5652" ry="36" fill="url(#paint0_linear_1001_5)" fill-opacity="0.2"/>
</g>
<path d="M44.445 77.66C40.155 77.66 36.7633 76.3767 34.27 73.81C31.7767 71.2067 30.53 67.6317 30.53 63.085C30.53 58.465 31.3733 54.23 33.06 50.38C34.7833 46.53 37.1667 43.4867 40.21 41.25C43.2533 38.9767 46.7183 37.84 50.605 37.84C54.895 37.84 58.2867 39.1417 60.78 41.745C63.2733 44.3117 64.52 47.8683 64.52 52.415C64.52 57.035 63.6583 61.27 61.935 65.12C60.2483 68.97 57.8833 72.0317 54.84 74.305C51.7967 76.5417 48.3317 77.66 44.445 77.66ZM45.27 70.125C47.3967 70.125 49.23 69.2083 50.77 67.375C52.3467 65.5417 53.5383 63.2683 54.345 60.555C55.1517 57.805 55.555 55.165 55.555 52.635C55.555 50.1783 55.0417 48.3633 54.015 47.19C53.025 45.98 51.6133 45.375 49.78 45.375C47.6533 45.375 45.8017 46.2917 44.225 48.125C42.685 49.9583 41.5117 52.25 40.705 55C39.8983 57.7133 39.495 60.335 39.495 62.865C39.495 65.3217 39.99 67.155 40.98 68.365C42.0067 69.5383 43.4367 70.125 45.27 70.125ZM101.905 68.915H95.5804L93.9854 77H85.2954L86.9454 68.915H66.2104L67.3654 62.92L90.0254 38.5H99.7604L78.6404 61.655H88.7604L90.1904 54.45H98.4954L97.0654 61.655H103.39L101.905 68.915Z" fill="#008000" fill-opacity="0.25"/>
<defs>
<filter id="filter0_f_1001_5" x="0" y="0" width="125.13" height="122" filterUnits="userSpaceOnUse" color-interpolation-filters="sRGB">
<feFlood flood-opacity="0" result="BackgroundImageFix"/>
<feBlend mode="normal" in="SourceGraphic" in2="BackgroundImageFix" result="shape"/>
<feGaussianBlur stdDeviation="12.5" result="effect1_foregroundBlur_1001_5"/>
</filter>
<linearGradient id="paint0_linear_1001_5" x1="63.532" y1="97" x2="63.532" y2="25" gradientUnits="userSpaceOnUse">
<stop stop-color="#2F5C48"/>
<stop offset="1" stop-color="#69B492" stop-opacity="0.5"/>
</linearGradient>
</defs>
</svg>
