<svg width="57" height="57" viewBox="0 0 57 57" fill="none" xmlns="http://www.w3.org/2000/svg">
<circle cx="28.5" cy="28.5" r="28" fill="white" stroke="#BEBEBE"/>
<path fill-rule="evenodd" clip-rule="evenodd" d="M10.5554 13.8647C10.5554 12.2079 11.8986 10.8647 13.5554 10.8647H42.8754C44.5322 10.8647 45.8754 12.2079 45.8754 13.8647V41.3734C45.8754 43.0303 44.5322 44.3734 42.8754 44.3734H13.5554C11.8986 44.3734 10.5554 43.0303 10.5554 41.3734V13.8647ZM28.1382 38.9282C26.2277 38.9291 24.3598 38.3632 22.7709 37.3021C21.1819 36.2409 19.9432 34.7322 19.2115 32.9668C18.4798 31.2014 18.2879 29.2585 18.66 27.3839C19.0322 25.5094 19.9517 23.7873 21.3024 22.4356C22.653 21.0839 24.3739 20.1632 26.2477 19.79C28.1214 19.4168 30.0637 19.6079 31.8288 20.3391C33.594 21.0702 35.1027 22.3087 36.1642 23.8977C37.2257 25.4867 37.7923 27.355 37.7923 29.2661C37.7899 31.8272 36.7722 34.2827 34.9623 36.094C33.1525 37.9054 30.6983 38.9246 28.1382 38.9282ZM28.1382 22.0184C26.7052 22.0184 25.3045 22.4435 24.113 23.2399C22.9215 24.0363 21.9929 25.1682 21.4445 26.4926C20.8962 27.8169 20.7527 29.2742 21.0323 30.6801C21.3118 32.086 22.0019 33.3774 23.0151 34.3911C24.0284 35.4047 25.3193 36.0949 26.7247 36.3746C28.1301 36.6542 29.5869 36.5107 30.9108 35.9622C32.2347 35.4136 33.3662 34.4846 34.1623 33.2928C34.9584 32.1009 35.3833 30.6996 35.3833 29.2661C35.3833 27.3439 34.62 25.5004 33.2612 24.1412C31.9025 22.782 30.0597 22.0184 28.1382 22.0184ZM39.3107 21.0236C39.5313 20.6935 39.6491 20.3053 39.6491 19.9082C39.6497 19.6449 39.5984 19.384 39.4981 19.1406C39.3978 18.8971 39.2504 18.6759 39.0645 18.4895C38.8786 18.3031 38.6577 18.1552 38.4146 18.0542C38.1715 17.9533 37.9109 17.9014 37.6477 17.9014C37.2507 17.9005 36.8624 18.0174 36.532 18.2374C36.2015 18.4574 35.9437 18.7705 35.7912 19.1371C35.6386 19.5037 35.5983 19.9074 35.6751 20.297C35.752 20.6865 35.9427 21.0446 36.2231 21.3257C36.5034 21.6068 36.8609 21.7984 37.2501 21.8762C37.6394 21.954 38.0429 21.9145 38.4097 21.7627C38.7765 21.611 39.0901 21.3538 39.3107 21.0236Z" fill="#008000"/>
</svg>
