<svg width="37" height="37" viewBox="0 0 37 37" fill="none" xmlns="http://www.w3.org/2000/svg">
<circle cx="18.5" cy="18.5" r="18" fill="white" stroke="#BEBEBE"/>
<path fill-rule="evenodd" clip-rule="evenodd" d="M6.85205 10.0526C6.85205 8.39576 8.1952 7.05261 9.85205 7.05261H26.779C28.4359 7.05261 29.779 8.39576 29.779 10.0526V25.8039C29.779 27.4607 28.4359 28.8039 26.779 28.8039H9.85205C8.19519 28.8039 6.85205 27.4607 6.85205 25.8039V10.0526ZM18.2653 24.9521C17.0251 24.9527 15.8127 24.5847 14.7812 23.8947C13.7498 23.2047 12.9458 22.2236 12.4708 21.0757C11.9958 19.9277 11.8712 18.6643 12.1128 17.4453C12.3544 16.2264 12.9513 15.1066 13.828 14.2276C14.7047 13.3486 15.8218 12.75 17.0381 12.5073C17.7342 12.3684 18.445 12.3497 19.1404 12.4483C19.1534 12.3232 19.1845 12.2 19.2333 12.0827C19.3323 11.8443 19.4996 11.6407 19.7142 11.4977C19.9287 11.3546 20.1807 11.2786 20.4384 11.2792C20.6093 11.2792 20.7784 11.3129 20.9363 11.3786C21.0941 11.4442 21.2374 11.5403 21.3581 11.6615C21.4788 11.7828 21.5744 11.9266 21.6396 12.0849C21.7047 12.2432 21.738 12.4128 21.7376 12.584C21.7376 12.8395 21.6628 13.0893 21.5224 13.3025C22.2985 13.776 22.9661 14.4149 23.4752 15.1784C24.1642 16.2116 24.532 17.4265 24.532 18.6692C24.5304 20.3346 23.8698 21.9313 22.695 23.1092C21.5202 24.287 19.9271 24.9498 18.2653 24.9521ZM18.2653 13.9563C17.3351 13.9563 16.4258 14.2327 15.6524 14.7506C14.879 15.2685 14.2762 16.0045 13.9203 16.8657C13.5643 17.7269 13.4712 18.6745 13.6527 19.5887C13.8341 20.5029 14.282 21.3427 14.9398 22.0018C15.5975 22.6609 16.4355 23.1098 17.3478 23.2916C18.2601 23.4734 19.2057 23.3801 20.065 23.0234C20.9244 22.6667 21.6589 22.0626 22.1757 21.2876C22.6924 20.5126 22.9683 19.6014 22.9683 18.6692C22.9683 17.4193 22.4728 16.2206 21.5908 15.3367C20.7088 14.4529 19.5126 13.9563 18.2653 13.9563Z" fill="#008000"/>
</svg>
