<svg width="27" height="27" viewBox="0 0 27 27" fill="none" xmlns="http://www.w3.org/2000/svg">
<circle cx="13.5" cy="13.5" r="13" fill="white" stroke="#BEBEBE"/>
<path fill-rule="evenodd" clip-rule="evenodd" d="M5 8.14648C5 6.48963 6.34315 5.14648 8 5.14648H18.7305C20.3874 5.14648 21.7305 6.48963 21.7305 8.14648V18.019C21.7305 19.6759 20.3874 21.019 18.7305 21.019H8C6.34315 21.019 5 19.6759 5 18.019V8.14648ZM13.3288 17.6811C12.4238 17.6816 11.5391 17.4136 10.7864 16.9111C10.0337 16.4087 9.447 15.6943 9.10039 14.8583C8.75378 14.0223 8.66287 13.1024 8.83916 12.2147C9.01545 11.3271 9.45103 10.5117 10.0908 9.87162C10.7305 9.23156 11.5458 8.79561 12.4333 8.6189C13.3209 8.44219 14.2409 8.53267 15.077 8.87889C15.9131 9.22511 16.6278 9.81152 17.1306 10.5639C17.6334 11.3164 17.9018 12.201 17.9018 13.106C17.9007 14.3187 17.4186 15.4814 16.5613 16.3391C15.704 17.1968 14.5415 17.6794 13.3288 17.6811ZM13.3288 9.67408C12.65 9.67408 11.9865 9.87536 11.4221 10.2525C10.8578 10.6296 10.4179 11.1656 10.1581 11.7927C9.89839 12.4197 9.83044 13.1098 9.96286 13.7755C10.0953 14.4412 10.4221 15.0527 10.9021 15.5327C11.3821 16.0127 11.9936 16.3395 12.6593 16.4719C13.325 16.6044 14.015 16.5364 14.6421 16.2766C15.2692 16.0169 15.8052 15.577 16.1823 15.0126C16.5594 14.4483 16.7607 13.7847 16.7607 13.106C16.7607 12.1958 16.3991 11.3229 15.7555 10.6793C15.1119 10.0357 14.239 9.67408 13.3288 9.67408ZM18.6209 9.20289C18.7254 9.04658 18.7812 8.86278 18.7812 8.67476C18.7815 8.55008 18.7572 8.42657 18.7097 8.31129C18.6622 8.19602 18.5924 8.09125 18.5043 8.00299C18.4162 7.91473 18.3116 7.8447 18.1965 7.79692C18.0813 7.74914 17.9579 7.72455 17.8332 7.72455C17.6451 7.72413 17.4612 7.7795 17.3047 7.88365C17.1481 7.9878 17.026 8.13605 16.9538 8.30964C16.8815 8.48323 16.8624 8.67435 16.8988 8.85882C16.9352 9.04328 17.0256 9.21279 17.1584 9.34589C17.2912 9.479 17.4605 9.56971 17.6449 9.60655C17.8292 9.64339 18.0204 9.6247 18.1941 9.55284C18.3679 9.48099 18.5164 9.35919 18.6209 9.20289Z" fill="#E5AC86"/>
</svg>
