<svg width="56" height="34" viewBox="0 0 56 34" fill="none" xmlns="http://www.w3.org/2000/svg">
<path d="M3.13 30.39L2.40778 31.0817L2.41272 31.0868L3.13 30.39ZM2.14 11.22L1.22724 10.8114L1.22404 10.8187L2.14 11.22ZM7.99 3.75L8.58222 4.55581L8.58846 4.55116L7.99 3.75ZM24.82 4.155L24.0978 4.8467L24.1027 4.85178L24.82 4.155ZM25.765 23.28L24.8522 22.8714L24.849 22.8787L25.765 23.28ZM19.96 30.795L20.5522 31.6008L20.5585 31.5962L19.96 30.795ZM16.63 25.125L15.8718 24.4729L15.8643 24.4818L16.63 25.125ZM19.555 19.545L20.5135 19.83L20.5146 19.8265L19.555 19.545ZM19.285 8.61L18.511 9.24323L18.5215 9.25605L18.5324 9.2685L19.285 8.61ZM11.275 9.375L10.5168 8.72292L10.5093 8.73181L11.275 9.375ZM8.395 15L9.35354 15.285L9.35457 15.2815L8.395 15ZM8.62 25.935L7.84604 26.5682L7.85652 26.581L7.86742 26.5935L8.62 25.935ZM11.455 32.54C8.15744 32.54 5.66218 31.5615 3.84728 29.6932L2.41272 31.0868C4.67782 33.4185 7.73257 34.54 11.455 34.54V32.54ZM3.8522 29.6983C2.03389 27.7998 1.07 25.1477 1.07 21.615H-0.93C-0.93 25.5223 0.146106 28.7202 2.4078 31.0817L3.8522 29.6983ZM1.07 21.615C1.07 17.9593 1.73666 14.6327 3.05596 11.6213L1.22404 10.8187C-0.216664 14.1073 -0.93 17.7107 -0.93 21.615H1.07ZM3.05273 11.6286C4.40048 8.61762 6.24735 6.27176 8.58221 4.55579L7.3978 2.94421C4.75265 4.88823 2.69952 7.52238 1.22727 10.8114L3.05273 11.6286ZM8.58846 4.55116C10.9014 2.82343 13.5253 1.96 16.495 1.96V-0.0400009C13.1047 -0.0400009 10.0586 0.95657 7.39155 2.94884L8.58846 4.55116ZM16.495 1.96C19.7883 1.96 22.2819 2.95072 24.0978 4.84668L25.5422 3.46331C23.2781 1.09928 20.2217 -0.0400009 16.495 -0.0400009V1.96ZM24.1027 4.85178C25.9159 6.71827 26.88 9.35156 26.88 12.885H28.88C28.88 8.97844 27.8041 5.79173 25.5373 3.45821L24.1027 4.85178ZM26.88 12.885C26.88 16.5377 26.1995 19.8618 24.8523 22.8714L26.6777 23.6886C28.1506 20.3982 28.88 16.7923 28.88 12.885H26.88ZM24.849 22.8787C23.5309 25.8875 21.6985 28.2482 19.3615 29.9938L20.5585 31.5962C23.2015 29.6218 25.2391 26.9725 26.681 23.6813L24.849 22.8787ZM19.3678 29.9892C17.0547 31.6892 14.4286 32.54 11.455 32.54V34.54C14.8414 34.54 17.8853 33.5608 20.5522 31.6008L19.3678 29.9892ZM12.13 28.375C14.2048 28.375 15.9726 27.4624 17.3957 25.7682L15.8643 24.4818C14.7674 25.7876 13.5352 26.375 12.13 26.375V28.375ZM17.3882 25.777C18.7844 24.1535 19.8202 22.1622 20.5135 19.83L18.5965 19.26C17.9698 21.3678 17.0556 23.0965 15.8718 24.473L17.3882 25.777ZM20.5146 19.8265C21.1979 17.497 21.545 15.2419 21.545 13.065H19.545C19.545 15.0281 19.2321 17.093 18.5954 19.2635L20.5146 19.8265ZM21.545 13.065C21.545 10.9453 21.1068 9.17348 20.0376 7.95149L18.5324 9.2685C19.1432 9.96651 19.545 11.1647 19.545 13.065H21.545ZM20.059 7.97676C19.0253 6.71336 17.5622 6.125 15.82 6.125V8.125C17.0778 8.125 17.9247 8.52664 18.511 9.24323L20.059 7.97676ZM15.82 6.125C13.7469 6.125 11.9678 7.03583 10.5168 8.72296L12.0332 10.027C13.1623 8.71417 14.4131 8.125 15.82 8.125V6.125ZM10.5093 8.73181C9.14463 10.3564 8.12682 12.3615 7.43543 14.7185L9.35457 15.2815C9.98318 13.1385 10.8854 11.3936 12.0407 10.0182L10.5093 8.73181ZM7.43646 14.715C6.75219 17.0167 6.405 19.2578 6.405 21.435H8.405C8.405 19.4722 8.71781 17.4233 9.35354 15.285L7.43646 14.715ZM6.405 21.435C6.405 23.5515 6.82684 25.3225 7.84604 26.5682L9.39396 25.3018C8.79316 24.5675 8.405 23.3385 8.405 21.435H6.405ZM7.86742 26.5935C8.93123 27.8093 10.3975 28.375 12.13 28.375V26.375C10.8625 26.375 9.98877 25.9807 9.37258 25.2765L7.86742 26.5935ZM39.5294 27.06L38.9172 26.2693L36.6042 28.06H39.5294V27.06ZM52.7594 27.06L53.7405 27.2533L53.9756 26.06H52.7594V27.06ZM51.5894 33V34H52.4116L52.5705 33.1933L51.5894 33ZM27.7394 33L26.7588 32.8039L26.5196 34H27.7394V33ZM28.6844 28.275L28.0675 27.4879L27.7763 27.7161L27.7038 28.0789L28.6844 28.275ZM43.0394 17.025L43.6562 17.8121L43.6626 17.8071L43.669 17.8019L43.0394 17.025ZM46.6394 13.47L45.8274 12.8864L45.8213 12.8949L45.8153 12.9035L46.6394 13.47ZM46.4594 7.935L45.831 8.71294L45.8382 8.71871L45.8454 8.72435L46.4594 7.935ZM39.3944 7.845L38.9564 6.94601L39.3944 7.845ZM36.3344 10.275L35.7475 11.0847L36.5064 11.6347L37.1044 10.913L36.3344 10.275ZM31.4294 6.72L30.6212 6.13101L30.0307 6.9413L30.8425 7.5297L31.4294 6.72ZM36.7394 2.535L37.1523 3.44584L37.1623 3.44118L36.7394 2.535ZM49.8794 2.04L49.4794 2.95656L49.4855 2.95914L49.8794 2.04ZM53.7494 5.055L52.9293 5.62718L52.9337 5.63352L52.9382 5.6398L53.7494 5.055ZM53.5244 14.91L54.3699 15.444L53.5244 14.91ZM47.8994 20.58L48.5116 21.3707L48.5121 21.3703L47.8994 20.58ZM39.5294 28.06H52.7594V26.06H39.5294V28.06ZM51.7782 26.8667L50.6082 32.8067L52.5705 33.1933L53.7405 27.2533L51.7782 26.8667ZM51.5894 32H27.7394V34H51.5894V32ZM28.72 33.1961L29.665 28.4711L27.7038 28.0789L26.7588 32.8039L28.72 33.1961ZM29.3012 29.0621L43.6562 17.8121L42.4225 16.2379L28.0675 27.4879L29.3012 29.0621ZM43.669 17.8019C45.4282 16.3763 46.7197 15.1183 47.4634 14.0365L45.8153 12.9035C45.2391 13.7417 44.1305 14.8537 42.4098 16.2481L43.669 17.8019ZM47.4514 14.0536C48.2476 12.9459 48.6744 11.7404 48.6744 10.455H46.6744C46.6744 11.2696 46.4112 12.0741 45.8274 12.8864L47.4514 14.0536ZM48.6744 10.455C48.6744 9.10479 48.1334 7.97019 47.0733 7.14565L45.8454 8.72435C46.4053 9.15981 46.6744 9.70521 46.6744 10.455H48.6744ZM47.0877 7.15706C46.0604 6.3273 44.6591 5.99 43.0394 5.99V7.99C44.4196 7.99 45.2984 8.2827 45.831 8.71294L47.0877 7.15706ZM43.0394 5.99C41.6225 5.99 40.2582 6.3118 38.9564 6.94601L39.8323 8.74399C40.8705 8.2382 41.9362 7.99 43.0394 7.99V5.99ZM38.9564 6.94601C37.6523 7.58134 36.5208 8.4827 35.5644 9.63698L37.1044 10.913C37.888 9.9673 38.7965 9.24866 39.8323 8.74399L38.9564 6.94601ZM36.9212 9.4653L32.0162 5.9103L30.8425 7.5297L35.7475 11.0847L36.9212 9.4653ZM32.2375 7.30898C33.4133 5.69571 35.0391 4.40375 37.1523 3.44578L36.3265 1.62422C33.9396 2.70625 32.0255 4.20429 30.6212 6.13101L32.2375 7.30898ZM37.1623 3.44118C39.2701 2.45754 41.5843 1.96 44.1194 1.96V-0.0400009C41.3145 -0.0400009 38.7087 0.512455 36.3165 1.62881L37.1623 3.44118ZM44.1194 1.96C46.2009 1.96 47.9798 2.30215 49.4794 2.95654L50.2793 1.12346C48.479 0.337852 46.4179 -0.0400009 44.1194 -0.0400009V1.96ZM49.4855 2.95914C51.0221 3.6177 52.1525 4.51381 52.9293 5.62718L54.5695 4.48281C53.5463 3.01619 52.0967 1.9023 50.2733 1.12085L49.4855 2.95914ZM52.9382 5.6398C53.743 6.75614 54.1444 8.00571 54.1444 9.42H56.1444C56.1444 7.59429 55.6158 5.93386 54.5606 4.4702L52.9382 5.6398ZM54.1444 9.42C54.1444 11.1737 53.6619 12.8196 52.6789 14.376L54.3699 15.444C55.5469 13.5804 56.1444 11.5663 56.1444 9.42H54.1444ZM52.6789 14.376C51.6889 15.9436 49.9178 17.7498 47.2867 19.7897L48.5121 21.3703C51.2209 19.2702 53.1999 17.2964 54.3699 15.444L52.6789 14.376ZM47.2872 19.7893L38.9172 26.2693L40.1415 27.8507L48.5116 21.3707L47.2872 19.7893Z" fill="#008000"/>
</svg>
