<svg width="57" height="34" viewBox="0 0 57 34" fill="none" xmlns="http://www.w3.org/2000/svg">
<path d="M3.13 30.39L2.40778 31.0817L2.41272 31.0868L3.13 30.39ZM2.14 11.22L1.22724 10.8114L1.22404 10.8187L2.14 11.22ZM7.99 3.75L8.58222 4.55581L8.58846 4.55116L7.99 3.75ZM24.82 4.155L24.0978 4.8467L24.1027 4.85178L24.82 4.155ZM25.765 23.28L24.8522 22.8714L24.849 22.8787L25.765 23.28ZM19.96 30.795L20.5522 31.6008L20.5585 31.5962L19.96 30.795ZM16.63 25.125L15.8718 24.4729L15.8643 24.4818L16.63 25.125ZM19.555 19.545L20.5135 19.83L20.5146 19.8265L19.555 19.545ZM19.285 8.61L18.511 9.24323L18.5215 9.25605L18.5324 9.2685L19.285 8.61ZM11.275 9.375L10.5168 8.72292L10.5093 8.73181L11.275 9.375ZM8.395 15L9.35354 15.285L9.35457 15.2815L8.395 15ZM8.62 25.935L7.84604 26.5682L7.85652 26.581L7.86742 26.5935L8.62 25.935ZM11.455 32.54C8.15744 32.54 5.66218 31.5615 3.84728 29.6932L2.41272 31.0868C4.67782 33.4185 7.73257 34.54 11.455 34.54V32.54ZM3.8522 29.6983C2.03389 27.7998 1.07 25.1477 1.07 21.615H-0.93C-0.93 25.5223 0.146106 28.7202 2.4078 31.0817L3.8522 29.6983ZM1.07 21.615C1.07 17.9593 1.73666 14.6327 3.05596 11.6213L1.22404 10.8187C-0.216664 14.1073 -0.93 17.7107 -0.93 21.615H1.07ZM3.05273 11.6286C4.40048 8.61762 6.24735 6.27176 8.58221 4.55579L7.3978 2.94421C4.75265 4.88823 2.69952 7.52238 1.22727 10.8114L3.05273 11.6286ZM8.58846 4.55116C10.9014 2.82343 13.5253 1.96 16.495 1.96V-0.0400009C13.1047 -0.0400009 10.0586 0.95657 7.39155 2.94884L8.58846 4.55116ZM16.495 1.96C19.7883 1.96 22.2819 2.95072 24.0978 4.84668L25.5422 3.46331C23.2781 1.09928 20.2217 -0.0400009 16.495 -0.0400009V1.96ZM24.1027 4.85178C25.9159 6.71827 26.88 9.35156 26.88 12.885H28.88C28.88 8.97844 27.8041 5.79173 25.5373 3.45821L24.1027 4.85178ZM26.88 12.885C26.88 16.5377 26.1995 19.8618 24.8523 22.8714L26.6777 23.6886C28.1506 20.3982 28.88 16.7923 28.88 12.885H26.88ZM24.849 22.8787C23.5309 25.8875 21.6985 28.2482 19.3615 29.9938L20.5585 31.5962C23.2015 29.6218 25.2391 26.9725 26.681 23.6813L24.849 22.8787ZM19.3678 29.9892C17.0547 31.6892 14.4286 32.54 11.455 32.54V34.54C14.8414 34.54 17.8853 33.5608 20.5522 31.6008L19.3678 29.9892ZM12.13 28.375C14.2048 28.375 15.9726 27.4624 17.3957 25.7682L15.8643 24.4818C14.7674 25.7876 13.5352 26.375 12.13 26.375V28.375ZM17.3882 25.777C18.7844 24.1535 19.8202 22.1622 20.5135 19.83L18.5965 19.26C17.9698 21.3678 17.0556 23.0965 15.8718 24.473L17.3882 25.777ZM20.5146 19.8265C21.1979 17.497 21.545 15.2419 21.545 13.065H19.545C19.545 15.0281 19.2321 17.093 18.5954 19.2635L20.5146 19.8265ZM21.545 13.065C21.545 10.9453 21.1068 9.17348 20.0376 7.95149L18.5324 9.2685C19.1432 9.96651 19.545 11.1647 19.545 13.065H21.545ZM20.059 7.97676C19.0253 6.71336 17.5622 6.125 15.82 6.125V8.125C17.0778 8.125 17.9247 8.52664 18.511 9.24323L20.059 7.97676ZM15.82 6.125C13.7469 6.125 11.9678 7.03583 10.5168 8.72296L12.0332 10.027C13.1623 8.71417 14.4131 8.125 15.82 8.125V6.125ZM10.5093 8.73181C9.14463 10.3564 8.12682 12.3615 7.43543 14.7185L9.35457 15.2815C9.98318 13.1385 10.8854 11.3936 12.0407 10.0182L10.5093 8.73181ZM7.43646 14.715C6.75219 17.0167 6.405 19.2578 6.405 21.435H8.405C8.405 19.4722 8.71781 17.4233 9.35354 15.285L7.43646 14.715ZM6.405 21.435C6.405 23.5515 6.82684 25.3225 7.84604 26.5682L9.39396 25.3018C8.79316 24.5675 8.405 23.3385 8.405 21.435H6.405ZM7.86742 26.5935C8.93123 27.8093 10.3975 28.375 12.13 28.375V26.375C10.8625 26.375 9.98877 25.9807 9.37258 25.2765L7.86742 26.5935ZM42.178 7.35V6.35H41.4237L41.2165 7.07528L42.178 7.35ZM40.468 13.335L39.5065 13.0603L39.1423 14.335H40.468V13.335ZM51.133 15.585L50.5292 16.3821L50.535 16.3864L51.133 15.585ZM52.3031 28.095L53.1197 28.6723L53.1242 28.6657L52.3031 28.095ZM47.128 32.145L47.5189 33.0655L47.525 33.0629L47.128 32.145ZM33.043 32.595L32.7398 33.5479L32.744 33.5492L33.043 32.595ZM28.003 29.895L27.1667 29.3468L26.6821 30.0861L27.3564 30.6578L28.003 29.895ZM31.513 24.54L32.1638 23.7807L31.3002 23.0405L30.6767 23.9918L31.513 24.54ZM35.293 26.655L34.9653 27.5998L34.9711 27.6018L35.293 26.655ZM45.0131 26.25L45.5677 27.0821L45.575 27.0772L45.5823 27.0722L45.0131 26.25ZM32.098 19.23L31.1374 18.9521L30.7677 20.23H32.098V19.23ZM37.2281 1.5V0.499998H36.4764L36.2674 1.22206L37.2281 1.5ZM56.488 1.5L57.4672 1.70335L57.7171 0.499998H56.488V1.5ZM55.273 7.35V8.35H56.0867L56.2522 7.55335L55.273 7.35ZM41.2165 7.07528L39.5065 13.0603L41.4296 13.6097L43.1396 7.62472L41.2165 7.07528ZM40.468 14.335H42.358V12.335H40.468V14.335ZM42.358 14.335C46.124 14.335 48.796 15.0691 50.5292 16.3821L51.7369 14.7879C49.5101 13.1009 46.3321 12.335 42.358 12.335V14.335ZM50.535 16.3864C52.264 17.6768 53.148 19.494 53.148 21.975H55.148C55.148 18.936 54.022 16.4932 51.7311 14.7836L50.535 16.3864ZM53.148 21.975C53.148 24.0964 52.5869 25.9341 51.4819 27.5243L53.1242 28.6657C54.4792 26.7159 55.148 24.4736 55.148 21.975H53.148ZM51.4865 27.5178C50.3762 29.0884 48.8059 30.3299 46.7311 31.2271L47.525 33.0629C49.8902 32.0401 51.7699 30.5816 53.1196 28.6722L51.4865 27.5178ZM46.7372 31.2246C44.6927 32.0928 42.3098 32.54 39.568 32.54V34.54C42.5263 34.54 45.1834 34.0572 47.5189 33.0654L46.7372 31.2246ZM39.568 32.54C37.3184 32.54 35.2453 32.2373 33.3421 31.6408L32.744 33.5492C34.8608 34.2127 37.1377 34.54 39.568 34.54V32.54ZM33.3463 31.6421C31.4736 31.0462 29.9151 30.205 28.6497 29.1322L27.3564 30.6578C28.851 31.925 30.6525 32.8838 32.7398 33.5479L33.3463 31.6421ZM28.8394 30.4432L32.3494 25.0882L30.6767 23.9918L27.1667 29.3468L28.8394 30.4432ZM30.8623 25.2993C32.0185 26.2903 33.3917 27.0538 34.9653 27.5998L35.6208 25.7102C34.2544 25.2362 33.1076 24.5897 32.1638 23.7807L30.8623 25.2993ZM34.9711 27.6018C36.5791 28.1485 38.2631 28.42 40.018 28.42V26.42C38.473 26.42 37.007 26.1815 35.615 25.7082L34.9711 27.6018ZM40.018 28.42C42.2771 28.42 44.1673 28.0157 45.5677 27.0821L44.4583 25.4179C43.5188 26.0443 42.079 26.42 40.018 26.42V28.42ZM45.5823 27.0722C47.0325 26.0682 47.768 24.6152 47.768 22.83H45.768C45.768 23.9848 45.3336 24.8118 44.4438 25.4278L45.5823 27.0722ZM47.768 22.83C47.768 21.2818 47.0758 20.0508 45.7451 19.2681C44.4968 18.5338 42.7534 18.23 40.648 18.23V20.23C42.6227 20.23 43.9393 20.5262 44.731 20.9919C45.4403 21.4092 45.768 21.9782 45.768 22.83H47.768ZM40.648 18.23H32.098V20.23H40.648V18.23ZM33.0586 19.5079L38.1886 1.77794L36.2674 1.22206L31.1374 18.9521L33.0586 19.5079ZM37.2281 2.5H56.488V0.499998H37.2281V2.5ZM55.5089 1.29664L54.2939 7.14664L56.2522 7.55335L57.4672 1.70335L55.5089 1.29664ZM55.273 6.35H42.178V8.35H55.273V6.35Z" fill="#008000" fill-opacity="0.8"/>
</svg>
