<svg width="47" height="34" viewBox="0 0 47 34" fill="none" xmlns="http://www.w3.org/2000/svg">
<path d="M3.13 30.39L2.40778 31.0817L2.41272 31.0868L3.13 30.39ZM2.14 11.22L1.22724 10.8114L1.22404 10.8187L2.14 11.22ZM7.99 3.75L8.58222 4.55581L8.58846 4.55116L7.99 3.75ZM24.82 4.155L24.0978 4.8467L24.1027 4.85178L24.82 4.155ZM25.765 23.28L24.8522 22.8714L24.849 22.8787L25.765 23.28ZM19.96 30.795L20.5522 31.6008L20.5585 31.5962L19.96 30.795ZM16.63 25.125L15.8718 24.4729L15.8643 24.4818L16.63 25.125ZM19.555 19.545L20.5135 19.83L20.5146 19.8265L19.555 19.545ZM19.285 8.61L18.511 9.24323L18.5215 9.25605L18.5324 9.2685L19.285 8.61ZM11.275 9.375L10.5168 8.72292L10.5093 8.73181L11.275 9.375ZM8.395 15L9.35354 15.285L9.35457 15.2815L8.395 15ZM8.62 25.935L7.84604 26.5682L7.85652 26.581L7.86742 26.5935L8.62 25.935ZM11.455 32.54C8.15744 32.54 5.66218 31.5615 3.84728 29.6932L2.41272 31.0868C4.67782 33.4185 7.73257 34.54 11.455 34.54V32.54ZM3.8522 29.6983C2.03389 27.7998 1.07 25.1477 1.07 21.615H-0.93C-0.93 25.5223 0.146106 28.7202 2.4078 31.0817L3.8522 29.6983ZM1.07 21.615C1.07 17.9593 1.73666 14.6327 3.05596 11.6213L1.22404 10.8187C-0.216664 14.1073 -0.93 17.7107 -0.93 21.615H1.07ZM3.05273 11.6286C4.40048 8.61762 6.24735 6.27176 8.58221 4.55579L7.3978 2.94421C4.75265 4.88823 2.69952 7.52238 1.22727 10.8114L3.05273 11.6286ZM8.58846 4.55116C10.9014 2.82343 13.5253 1.96 16.495 1.96V-0.0400009C13.1047 -0.0400009 10.0586 0.95657 7.39155 2.94884L8.58846 4.55116ZM16.495 1.96C19.7883 1.96 22.2819 2.95072 24.0978 4.84668L25.5422 3.46331C23.2781 1.09928 20.2217 -0.0400009 16.495 -0.0400009V1.96ZM24.1027 4.85178C25.9159 6.71827 26.88 9.35156 26.88 12.885H28.88C28.88 8.97844 27.8041 5.79173 25.5373 3.45821L24.1027 4.85178ZM26.88 12.885C26.88 16.5377 26.1995 19.8618 24.8523 22.8714L26.6777 23.6886C28.1506 20.3982 28.88 16.7923 28.88 12.885H26.88ZM24.849 22.8787C23.5309 25.8875 21.6985 28.2482 19.3615 29.9938L20.5585 31.5962C23.2015 29.6218 25.2391 26.9725 26.681 23.6813L24.849 22.8787ZM19.3678 29.9892C17.0547 31.6892 14.4286 32.54 11.455 32.54V34.54C14.8414 34.54 17.8853 33.5608 20.5522 31.6008L19.3678 29.9892ZM12.13 28.375C14.2048 28.375 15.9726 27.4624 17.3957 25.7682L15.8643 24.4818C14.7674 25.7876 13.5352 26.375 12.13 26.375V28.375ZM17.3882 25.777C18.7844 24.1535 19.8202 22.1622 20.5135 19.83L18.5965 19.26C17.9698 21.3678 17.0556 23.0965 15.8718 24.473L17.3882 25.777ZM20.5146 19.8265C21.1979 17.497 21.545 15.2419 21.545 13.065H19.545C19.545 15.0281 19.2321 17.093 18.5954 19.2635L20.5146 19.8265ZM21.545 13.065C21.545 10.9453 21.1068 9.17348 20.0376 7.95149L18.5324 9.2685C19.1432 9.96651 19.545 11.1647 19.545 13.065H21.545ZM20.059 7.97676C19.0253 6.71336 17.5622 6.125 15.82 6.125V8.125C17.0778 8.125 17.9247 8.52664 18.511 9.24323L20.059 7.97676ZM15.82 6.125C13.7469 6.125 11.9678 7.03583 10.5168 8.72296L12.0332 10.027C13.1623 8.71417 14.4131 8.125 15.82 8.125V6.125ZM10.5093 8.73181C9.14463 10.3564 8.12682 12.3615 7.43543 14.7185L9.35457 15.2815C9.98318 13.1385 10.8854 11.3936 12.0407 10.0182L10.5093 8.73181ZM7.43646 14.715C6.75219 17.0167 6.405 19.2578 6.405 21.435H8.405C8.405 19.4722 8.71781 17.4233 9.35354 15.285L7.43646 14.715ZM6.405 21.435C6.405 23.5515 6.82684 25.3225 7.84604 26.5682L9.39396 25.3018C8.79316 24.5675 8.405 23.3385 8.405 21.435H6.405ZM7.86742 26.5935C8.93123 27.8093 10.3975 28.375 12.13 28.375V26.375C10.8625 26.375 9.98877 25.9807 9.37258 25.2765L7.86742 26.5935ZM46.4594 1.5L47.44 1.69611L47.6792 0.499998H46.4594V1.5ZM40.1594 33V34H40.9792L41.14 33.1961L40.1594 33ZM32.8694 33L31.8888 32.8039L31.6496 34H32.8694V33ZM37.9994 7.35L38.98 7.54611L39.2192 6.35H37.9994V7.35ZM31.6994 7.35L30.7188 7.15388L30.4796 8.35H31.6994V7.35ZM32.8694 1.5V0.499998H32.0496L31.8888 1.30388L32.8694 1.5ZM45.4788 1.30388L39.1788 32.8039L41.14 33.1961L47.44 1.69611L45.4788 1.30388ZM40.1594 32H32.8694V34H40.1594V32ZM33.85 33.1961L38.98 7.54611L37.0188 7.15388L31.8888 32.8039L33.85 33.1961ZM37.9994 6.35H31.6994V8.35H37.9994V6.35ZM32.68 7.54611L33.85 1.69611L31.8888 1.30388L30.7188 7.15388L32.68 7.54611ZM32.8694 2.5H46.4594V0.499998H32.8694V2.5Z" fill="#008000"/>
</svg>
