<svg width="59" height="34" viewBox="0 0 59 34" fill="none" xmlns="http://www.w3.org/2000/svg">
<path d="M3.13 30.39L2.40778 31.0817L2.41272 31.0868L3.13 30.39ZM2.14 11.22L1.22724 10.8114L1.22404 10.8187L2.14 11.22ZM7.99 3.75L8.58222 4.55581L8.58846 4.55116L7.99 3.75ZM24.82 4.155L24.0978 4.8467L24.1027 4.85178L24.82 4.155ZM25.765 23.28L24.8522 22.8714L24.849 22.8787L25.765 23.28ZM19.96 30.795L20.5522 31.6008L20.5585 31.5962L19.96 30.795ZM16.63 25.125L15.8718 24.4729L15.8643 24.4818L16.63 25.125ZM19.555 19.545L20.5135 19.83L20.5146 19.8265L19.555 19.545ZM19.285 8.61L18.511 9.24323L18.5215 9.25605L18.5324 9.2685L19.285 8.61ZM11.275 9.375L10.5168 8.72292L10.5093 8.73181L11.275 9.375ZM8.395 15L9.35354 15.285L9.35457 15.2815L8.395 15ZM8.62 25.935L7.84604 26.5682L7.85652 26.581L7.86742 26.5935L8.62 25.935ZM11.455 32.54C8.15744 32.54 5.66218 31.5615 3.84728 29.6932L2.41272 31.0868C4.67782 33.4185 7.73257 34.54 11.455 34.54V32.54ZM3.8522 29.6983C2.03389 27.7998 1.07 25.1477 1.07 21.615H-0.93C-0.93 25.5223 0.146106 28.7202 2.4078 31.0817L3.8522 29.6983ZM1.07 21.615C1.07 17.9593 1.73666 14.6327 3.05596 11.6213L1.22404 10.8187C-0.216664 14.1073 -0.93 17.7107 -0.93 21.615H1.07ZM3.05273 11.6286C4.40048 8.61762 6.24735 6.27176 8.58221 4.55579L7.3978 2.94421C4.75265 4.88823 2.69952 7.52238 1.22727 10.8114L3.05273 11.6286ZM8.58846 4.55116C10.9014 2.82343 13.5253 1.96 16.495 1.96V-0.0400009C13.1047 -0.0400009 10.0586 0.95657 7.39155 2.94884L8.58846 4.55116ZM16.495 1.96C19.7883 1.96 22.2819 2.95072 24.0978 4.84668L25.5422 3.46331C23.2781 1.09928 20.2217 -0.0400009 16.495 -0.0400009V1.96ZM24.1027 4.85178C25.9159 6.71827 26.88 9.35156 26.88 12.885H28.88C28.88 8.97844 27.8041 5.79173 25.5373 3.45821L24.1027 4.85178ZM26.88 12.885C26.88 16.5377 26.1995 19.8618 24.8523 22.8714L26.6777 23.6886C28.1506 20.3982 28.88 16.7923 28.88 12.885H26.88ZM24.849 22.8787C23.5309 25.8875 21.6985 28.2482 19.3615 29.9938L20.5585 31.5962C23.2015 29.6218 25.2391 26.9725 26.681 23.6813L24.849 22.8787ZM19.3678 29.9892C17.0547 31.6892 14.4286 32.54 11.455 32.54V34.54C14.8414 34.54 17.8853 33.5608 20.5522 31.6008L19.3678 29.9892ZM12.13 28.375C14.2048 28.375 15.9726 27.4624 17.3957 25.7682L15.8643 24.4818C14.7674 25.7876 13.5352 26.375 12.13 26.375V28.375ZM17.3882 25.777C18.7844 24.1535 19.8202 22.1622 20.5135 19.83L18.5965 19.26C17.9698 21.3678 17.0556 23.0965 15.8718 24.473L17.3882 25.777ZM20.5146 19.8265C21.1979 17.497 21.545 15.2419 21.545 13.065H19.545C19.545 15.0281 19.2321 17.093 18.5954 19.2635L20.5146 19.8265ZM21.545 13.065C21.545 10.9453 21.1068 9.17348 20.0376 7.95149L18.5324 9.2685C19.1432 9.96651 19.545 11.1647 19.545 13.065H21.545ZM20.059 7.97676C19.0253 6.71336 17.5622 6.125 15.82 6.125V8.125C17.0778 8.125 17.9247 8.52664 18.511 9.24323L20.059 7.97676ZM15.82 6.125C13.7469 6.125 11.9678 7.03583 10.5168 8.72296L12.0332 10.027C13.1623 8.71417 14.4131 8.125 15.82 8.125V6.125ZM10.5093 8.73181C9.14463 10.3564 8.12682 12.3615 7.43543 14.7185L9.35457 15.2815C9.98318 13.1385 10.8854 11.3936 12.0407 10.0182L10.5093 8.73181ZM7.43646 14.715C6.75219 17.0167 6.405 19.2578 6.405 21.435H8.405C8.405 19.4722 8.71781 17.4233 9.35354 15.285L7.43646 14.715ZM6.405 21.435C6.405 23.5515 6.82684 25.3225 7.84604 26.5682L9.39396 25.3018C8.79316 24.5675 8.405 23.3385 8.405 21.435H6.405ZM7.86742 26.5935C8.93123 27.8093 10.3975 28.375 12.13 28.375V26.375C10.8625 26.375 9.98877 25.9807 9.37258 25.2765L7.86742 26.5935ZM51.268 14.325L50.8422 15.2298L50.849 15.233L51.268 14.325ZM54.958 17.475L54.1204 18.0213L54.1274 18.0319L54.1345 18.0423L54.958 17.475ZM54.733 28.275L55.5743 28.8158L55.5785 28.809L54.733 28.275ZM50.233 32.19L50.6575 33.0955L50.669 33.09L50.233 32.19ZM37.093 32.055L37.5513 31.1662L37.093 32.055ZM32.593 27.69L31.7126 28.1641L31.7169 28.1722L31.7215 28.1803L32.593 27.69ZM33.043 11.355L33.955 11.7654L33.9565 11.762L33.043 11.355ZM54.913 1.545L54.6705 2.51514L54.6793 2.51735L54.6882 2.51939L54.913 1.545ZM58.738 3.075L59.5904 3.5979L60.094 2.77709L59.2928 2.24295L58.738 3.075ZM55.453 8.43L54.8907 9.25693L55.7574 9.84626L56.3054 8.9529L55.453 8.43ZM42.493 9.375L41.8111 8.64351L41.805 8.64937L42.493 9.375ZM39.028 15.72L38.0516 15.5043L37.387 18.5126L39.6917 16.4681L39.028 15.72ZM47.578 26.7L46.915 25.9514L46.9096 25.9562L46.9043 25.961L47.578 26.7ZM47.758 19.86L47.1031 20.6157L47.1165 20.6273L47.1303 20.6384L47.758 19.86ZM40.063 20.085L40.7261 20.8336L40.063 20.085ZM39.838 26.835L39.143 27.554L39.1552 27.5658L39.1678 27.5771L39.838 26.835ZM46.273 14.245C47.9355 14.245 49.4539 14.5765 50.8423 15.2298L51.6938 13.4202C50.0222 12.6335 48.2106 12.245 46.273 12.245V14.245ZM50.849 15.233C52.2459 15.8777 53.3277 16.8057 54.1204 18.0213L55.7957 16.9287C54.7884 15.3843 53.4102 14.2123 51.6871 13.417L50.849 15.233ZM54.1345 18.0423C54.9327 19.201 55.3531 20.6157 55.3531 22.335H57.3531C57.3531 20.2743 56.8434 18.4491 55.7816 16.9077L54.1345 18.0423ZM55.3531 22.335C55.3531 24.4179 54.8555 26.2084 53.8876 27.741L55.5785 28.809C56.7706 26.9216 57.3531 24.7521 57.3531 22.335H55.3531ZM53.8919 27.7342C52.9182 29.2489 51.5633 30.4345 49.7971 31.29L50.669 33.09C52.7428 32.0855 54.3879 30.6611 55.5742 28.8158L53.8919 27.7342ZM49.8086 31.2845C48.038 32.1145 46.0257 32.54 43.753 32.54V34.54C46.2804 34.54 48.5881 34.0655 50.6575 33.0955L49.8086 31.2845ZM43.753 32.54C41.3659 32.54 39.3078 32.0718 37.5513 31.1662L36.6348 32.9438C38.7183 34.0182 41.1002 34.54 43.753 34.54V32.54ZM37.5513 31.1662C35.8087 30.2677 34.4508 28.9529 33.4646 27.1997L31.7215 28.1803C32.8953 30.2671 34.5374 31.8623 36.6348 32.9438L37.5513 31.1662ZM33.4735 27.2159C32.519 25.4432 32.018 23.2596 32.018 20.625H30.018C30.018 23.5104 30.5671 26.0368 31.7126 28.1641L33.4735 27.2159ZM32.018 20.625C32.018 17.5914 32.661 14.6409 33.955 11.7654L32.1311 10.9446C30.7251 14.0691 30.018 17.2986 30.018 20.625H32.018ZM33.9565 11.762C35.228 8.90813 37.2039 6.56031 39.9077 4.71031L38.7784 3.05969C35.7822 5.10969 33.5581 7.74187 32.1296 10.948L33.9565 11.762ZM39.9077 4.71031C42.5572 2.8975 45.8887 1.96 49.963 1.96V-0.0400009C45.5774 -0.0400009 41.8289 0.9725 38.7784 3.05969L39.9077 4.71031ZM49.963 1.96C51.6279 1.96 53.196 2.14652 54.6705 2.51514L55.1556 0.574854C53.5101 0.163475 51.7782 -0.0400009 49.963 -0.0400009V1.96ZM54.6882 2.51939C56.1687 2.86104 57.3219 3.33275 58.1833 3.90705L59.2928 2.24295C58.1742 1.49725 56.7774 0.948956 55.1379 0.570606L54.6882 2.51939ZM57.8857 2.5521L54.6007 7.9071L56.3054 8.9529L59.5904 3.5979L57.8857 2.5521ZM56.0154 7.60307C54.3 6.4366 52.1039 5.9 49.5131 5.9V7.9C51.8422 7.9 53.6061 8.3834 54.8907 9.25693L56.0154 7.60307ZM49.5131 5.9C46.4042 5.9 43.8025 6.78722 41.8112 8.64353L43.1749 10.1065C44.7236 8.66278 46.8019 7.9 49.5131 7.9V5.9ZM41.805 8.64937C39.9054 10.4506 38.6601 12.75 38.0516 15.5043L40.0045 15.9357C40.536 13.53 41.6007 11.5994 43.1811 10.1006L41.805 8.64937ZM39.6917 16.4681C41.3344 15.0108 43.4975 14.245 46.273 14.245V12.245C43.1086 12.245 40.4417 13.1292 38.3644 14.9719L39.6917 16.4681ZM43.663 29.095C45.4618 29.095 47.0197 28.5623 48.2518 27.439L46.9043 25.961C46.0964 26.6977 45.0443 27.095 43.663 27.095V29.095ZM48.2411 27.4486C49.5308 26.3062 50.153 24.7754 50.153 22.965H48.153C48.153 24.2746 47.7253 25.2338 46.915 25.9514L48.2411 27.4486ZM50.153 22.965C50.153 21.3787 49.5779 20.043 48.3858 19.0816L47.1303 20.6384C47.7982 21.177 48.153 21.9113 48.153 22.965H50.153ZM48.413 19.1043C47.2878 18.1291 45.8342 17.69 44.1581 17.69V19.69C45.4819 19.69 46.4283 20.0309 47.1031 20.6157L48.413 19.1043ZM44.1581 17.69C42.2846 17.69 40.6677 18.2136 39.4 19.3364L40.7261 20.8336C41.5584 20.0964 42.6715 19.69 44.1581 19.69V17.69ZM39.4 19.3364C38.1293 20.4619 37.488 21.9225 37.488 23.64H39.488C39.488 22.4776 39.8968 21.5681 40.7261 20.8336L39.4 19.3364ZM37.488 23.64C37.488 25.1691 38.0467 26.4942 39.143 27.554L40.5331 26.116C39.8294 25.4358 39.488 24.6309 39.488 23.64H37.488ZM39.1678 27.5771C40.3302 28.6271 41.87 29.095 43.663 29.095V27.095C42.2161 27.095 41.2059 26.7229 40.5083 26.0929L39.1678 27.5771Z" fill="#008000" fill-opacity="0.8"/>
</svg>
