<svg width="56" height="34" viewBox="0 0 56 34" fill="none" xmlns="http://www.w3.org/2000/svg">
<path d="M3.13 30.39L2.40778 31.0817L2.41272 31.0868L3.13 30.39ZM2.14 11.22L1.22724 10.8114L1.22404 10.8187L2.14 11.22ZM7.99 3.75L8.58222 4.55581L8.58846 4.55116L7.99 3.75ZM24.82 4.155L24.0978 4.8467L24.1027 4.85178L24.82 4.155ZM25.765 23.28L24.8522 22.8714L24.849 22.8787L25.765 23.28ZM19.96 30.795L20.5522 31.6008L20.5585 31.5962L19.96 30.795ZM16.63 25.125L15.8718 24.4729L15.8643 24.4818L16.63 25.125ZM19.555 19.545L20.5135 19.83L20.5146 19.8265L19.555 19.545ZM19.285 8.61L18.511 9.24323L18.5215 9.25605L18.5324 9.2685L19.285 8.61ZM11.275 9.375L10.5168 8.72292L10.5093 8.73181L11.275 9.375ZM8.395 15L9.35354 15.285L9.35457 15.2815L8.395 15ZM8.62 25.935L7.84604 26.5682L7.85652 26.581L7.86742 26.5935L8.62 25.935ZM11.455 32.54C8.15744 32.54 5.66218 31.5615 3.84728 29.6932L2.41272 31.0868C4.67782 33.4185 7.73257 34.54 11.455 34.54V32.54ZM3.8522 29.6983C2.03389 27.7998 1.07 25.1477 1.07 21.615H-0.93C-0.93 25.5223 0.146106 28.7202 2.4078 31.0817L3.8522 29.6983ZM1.07 21.615C1.07 17.9593 1.73666 14.6327 3.05596 11.6213L1.22404 10.8187C-0.216664 14.1073 -0.93 17.7107 -0.93 21.615H1.07ZM3.05273 11.6286C4.40048 8.61762 6.24735 6.27176 8.58221 4.55579L7.3978 2.94421C4.75265 4.88823 2.69952 7.52238 1.22727 10.8114L3.05273 11.6286ZM8.58846 4.55116C10.9014 2.82343 13.5253 1.96 16.495 1.96V-0.0400009C13.1047 -0.0400009 10.0586 0.95657 7.39155 2.94884L8.58846 4.55116ZM16.495 1.96C19.7883 1.96 22.2819 2.95072 24.0978 4.84668L25.5422 3.46331C23.2781 1.09928 20.2217 -0.0400009 16.495 -0.0400009V1.96ZM24.1027 4.85178C25.9159 6.71827 26.88 9.35156 26.88 12.885H28.88C28.88 8.97844 27.8041 5.79173 25.5373 3.45821L24.1027 4.85178ZM26.88 12.885C26.88 16.5377 26.1995 19.8618 24.8523 22.8714L26.6777 23.6886C28.1506 20.3982 28.88 16.7923 28.88 12.885H26.88ZM24.849 22.8787C23.5309 25.8875 21.6985 28.2482 19.3615 29.9938L20.5585 31.5962C23.2015 29.6218 25.2391 26.9725 26.681 23.6813L24.849 22.8787ZM19.3678 29.9892C17.0547 31.6892 14.4286 32.54 11.455 32.54V34.54C14.8414 34.54 17.8853 33.5608 20.5522 31.6008L19.3678 29.9892ZM12.13 28.375C14.2048 28.375 15.9726 27.4624 17.3957 25.7682L15.8643 24.4818C14.7674 25.7876 13.5352 26.375 12.13 26.375V28.375ZM17.3882 25.777C18.7844 24.1535 19.8202 22.1622 20.5135 19.83L18.5965 19.26C17.9698 21.3678 17.0556 23.0965 15.8718 24.473L17.3882 25.777ZM20.5146 19.8265C21.1979 17.497 21.545 15.2419 21.545 13.065H19.545C19.545 15.0281 19.2321 17.093 18.5954 19.2635L20.5146 19.8265ZM21.545 13.065C21.545 10.9453 21.1068 9.17348 20.0376 7.95149L18.5324 9.2685C19.1432 9.96651 19.545 11.1647 19.545 13.065H21.545ZM20.059 7.97676C19.0253 6.71336 17.5622 6.125 15.82 6.125V8.125C17.0778 8.125 17.9247 8.52664 18.511 9.24323L20.059 7.97676ZM15.82 6.125C13.7469 6.125 11.9678 7.03583 10.5168 8.72296L12.0332 10.027C13.1623 8.71417 14.4131 8.125 15.82 8.125V6.125ZM10.5093 8.73181C9.14463 10.3564 8.12682 12.3615 7.43543 14.7185L9.35457 15.2815C9.98318 13.1385 10.8854 11.3936 12.0407 10.0182L10.5093 8.73181ZM7.43646 14.715C6.75219 17.0167 6.405 19.2578 6.405 21.435H8.405C8.405 19.4722 8.71781 17.4233 9.35354 15.285L7.43646 14.715ZM6.405 21.435C6.405 23.5515 6.82684 25.3225 7.84604 26.5682L9.39396 25.3018C8.79316 24.5675 8.405 23.3385 8.405 21.435H6.405ZM7.86742 26.5935C8.93123 27.8093 10.3975 28.375 12.13 28.375V26.375C10.8625 26.375 9.98877 25.9807 9.37258 25.2765L7.86742 26.5935ZM55.0586 6.225L55.741 6.95593L55.9798 6.733L56.0409 6.41211L55.0586 6.225ZM46.2386 14.46L45.5561 13.7291L44.1856 15.0087L46.0118 15.4339L46.2386 14.46ZM51.2336 28.14L50.4335 27.54L50.4267 27.5493L51.2336 28.14ZM46.0586 32.1L45.6617 31.1821L46.0586 32.1ZM32.0186 32.595L31.7195 33.5492L32.0186 32.595ZM26.9786 29.895L26.1422 29.3468L25.6629 30.0781L26.3237 30.6507L26.9786 29.895ZM30.4886 24.54L31.1394 23.7807L30.2758 23.0405L29.6522 23.9918L30.4886 24.54ZM34.2686 26.655L33.9408 27.5998L33.9467 27.6018L34.2686 26.655ZM43.9886 26.25L44.5433 27.0821L44.5506 27.0772L44.5578 27.0722L43.9886 26.25ZM44.4386 20.355L43.8771 21.1825L43.8939 21.1939L43.9112 21.2046L44.4386 20.355ZM37.2386 19.5L36.2573 19.3074L36.0233 20.5H37.2386V19.5ZM38.1836 14.685L37.4999 13.9552L37.2645 14.1758L37.2023 14.4924L38.1836 14.685ZM46.0136 7.35L46.6973 8.0798L48.5438 6.35H46.0136V7.35ZM32.6936 7.35L31.7145 7.14664L31.4646 8.35H32.6936V7.35ZM33.9086 1.5V0.499998H33.0949L32.9295 1.29664L33.9086 1.5ZM55.9586 1.5L56.9409 1.68711L57.167 0.499998H55.9586V1.5ZM54.3761 5.49407L45.5561 13.7291L46.921 15.1909L55.741 6.95593L54.3761 5.49407ZM46.0118 15.4339C48.0446 15.9073 49.5362 16.7634 50.569 17.9512L52.0782 16.6388C50.711 15.0666 48.8126 14.0327 46.4654 13.4861L46.0118 15.4339ZM50.569 17.9512C51.5922 19.1279 52.1236 20.5963 52.1236 22.425H54.1236C54.1236 20.1737 53.455 18.2221 52.0782 16.6388L50.569 17.9512ZM52.1236 22.425C52.1236 24.342 51.5618 26.0357 50.4336 27.54L52.0336 28.74C53.4254 26.8843 54.1236 24.768 54.1236 22.425H52.1236ZM50.4267 27.5493C49.3178 29.0639 47.7451 30.2812 45.6617 31.1821L46.4555 33.0179C48.8121 31.9988 50.6894 30.5761 52.0405 28.7307L50.4267 27.5493ZM45.6617 31.1821C43.586 32.0797 41.2045 32.54 38.4986 32.54V34.54C41.4327 34.54 44.0911 34.0403 46.4555 33.0179L45.6617 31.1821ZM38.4986 32.54C36.2803 32.54 34.222 32.2377 32.3177 31.6408L31.7195 33.5492C33.8352 34.2123 36.0969 34.54 38.4986 34.54V32.54ZM32.3177 31.6408C30.4155 31.0446 28.8629 30.2048 27.6335 29.1393L26.3237 30.6507C27.7943 31.9252 29.6017 32.8854 31.7195 33.5492L32.3177 31.6408ZM27.8149 30.4432L31.3249 25.0882L29.6522 23.9918L26.1422 29.3468L27.8149 30.4432ZM29.8378 25.2993C30.9941 26.2903 32.3672 27.0538 33.9408 27.5998L34.5964 25.7102C33.23 25.2362 32.0831 24.5897 31.1394 23.7807L29.8378 25.2993ZM33.9467 27.6018C35.5546 28.1485 37.2387 28.42 38.9936 28.42V26.42C37.4485 26.42 35.9826 26.1815 34.5905 25.7082L33.9467 27.6018ZM38.9936 28.42C41.2526 28.42 43.1428 28.0157 44.5433 27.0821L43.4339 25.4179C42.4944 26.0443 41.0545 26.42 38.9936 26.42V28.42ZM44.5578 27.0722C46.0014 26.0728 46.7436 24.6385 46.7436 22.875H44.7436C44.7436 23.9915 44.3158 24.8072 43.4194 25.4278L44.5578 27.0722ZM46.7436 22.875C46.7436 21.4358 46.1675 20.2511 44.966 19.5054L43.9112 21.2046C44.4497 21.5389 44.7436 22.0342 44.7436 22.875H46.7436ZM45.0001 19.5275C43.9136 18.7903 42.3817 18.5 40.5686 18.5V20.5C42.2355 20.5 43.2836 20.7797 43.8771 21.1825L45.0001 19.5275ZM40.5686 18.5H37.2386V20.5H40.5686V18.5ZM38.2199 19.6926L39.1649 14.8776L37.2023 14.4924L36.2573 19.3074L38.2199 19.6926ZM38.8673 15.4148L46.6973 8.0798L45.3299 6.6202L37.4999 13.9552L38.8673 15.4148ZM46.0136 6.35H32.6936V8.35H46.0136V6.35ZM33.6727 7.55335L34.8877 1.70335L32.9295 1.29664L31.7145 7.14664L33.6727 7.55335ZM33.9086 2.5H55.9586V0.499998H33.9086V2.5ZM54.9763 1.31289L54.0763 6.03789L56.0409 6.41211L56.9409 1.68711L54.9763 1.31289Z" fill="#008000"/>
</svg>
