<svg width="27" height="27" viewBox="0 0 27 27" fill="none" xmlns="http://www.w3.org/2000/svg">
<circle cx="13.5" cy="13.5" r="13" fill="white" stroke="#BEBEBE"/>
<path fill-rule="evenodd" clip-rule="evenodd" d="M21.5431 8.8081C21.6685 8.36086 21.5431 8.03223 20.9464 8.03223H18.9733C18.4715 8.03223 18.2403 8.31612 18.1148 8.62917C18.1148 8.62917 17.1114 11.2455 15.6899 12.945C15.23 13.4369 15.021 13.5934 14.7701 13.5934C14.6447 13.5934 14.4632 13.4369 14.4632 12.9897V8.8081C14.4632 8.27141 14.3176 8.03223 13.8994 8.03223H10.7988C10.4852 8.03223 10.2967 8.28132 10.2967 8.51739C10.2967 9.02616 11.0074 9.14349 11.0806 10.5747V13.6829C11.0806 14.3644 10.9656 14.488 10.7147 14.488C10.0458 14.488 8.4187 11.8599 7.45366 8.85281C7.26454 8.26833 7.07485 8.03223 6.57057 8.03223H4.59741C4.03366 8.03223 3.9209 8.31612 3.9209 8.62917C3.9209 9.18823 4.58984 11.9611 7.03561 15.6284C8.66611 18.1328 10.9634 19.4904 13.0538 19.4904C14.308 19.4904 14.4632 19.1889 14.4632 18.6695V16.7767C14.4632 16.1736 14.582 16.0532 14.9792 16.0532C15.2718 16.0532 15.7735 16.2098 16.9442 17.4173C18.282 18.8484 18.5026 19.4904 19.2551 19.4904H21.2283C21.792 19.4904 22.0739 19.1889 21.9113 18.5939C21.7334 18.0008 21.0946 17.1403 20.247 16.1203C19.7871 15.5389 19.0973 14.9128 18.8882 14.5997C18.5956 14.1972 18.6792 14.0183 18.8882 13.6606C18.8882 13.6606 21.2923 10.038 21.5431 8.8081Z" fill="#008000"/>
</svg>
